<svg width="152" height="24" viewBox="0 0 152 24" fill="none" xmlns="http://www.w3.org/2000/svg">
<path d="M11.4951 2.7143C11.7017 2.29575 12.2985 2.29575 12.5051 2.7143L15.1791 8.13242C15.2611 8.29863 15.4196 8.41383 15.6031 8.44048L21.5823 9.30932C22.0442 9.37643 22.2286 9.94406 21.8944 10.2698L17.5678 14.4873C17.4351 14.6166 17.3745 14.803 17.4058 14.9857L18.4272 20.9408C18.5061 21.4008 18.0233 21.7516 17.6101 21.5345L12.2621 18.7228C12.0981 18.6366 11.9021 18.6366 11.738 18.7228L6.39002 21.5345C5.97689 21.7516 5.49404 21.4008 5.57294 20.9408L6.59432 14.9857C6.62565 14.803 6.56509 14.6166 6.43236 14.4873L2.10573 10.2698C1.7715 9.94406 1.95594 9.37643 2.41783 9.30932L8.39708 8.44048C8.5805 8.41383 8.73906 8.29863 8.82109 8.13242L11.4951 2.7143Z" fill="#FEB803"/>
<path d="M43.4951 2.7143C43.7017 2.29575 44.2985 2.29575 44.5051 2.7143L47.1791 8.13242C47.2611 8.29863 47.4196 8.41383 47.6031 8.44048L53.5823 9.30932C54.0442 9.37643 54.2286 9.94406 53.8944 10.2698L49.5678 14.4873C49.4351 14.6166 49.3745 14.803 49.4058 14.9857L50.4272 20.9408C50.5061 21.4008 50.0233 21.7516 49.6101 21.5345L44.2621 18.7228C44.0981 18.6366 43.9021 18.6366 43.738 18.7228L38.39 21.5345C37.9769 21.7516 37.494 21.4008 37.5729 20.9408L38.5943 14.9857C38.6256 14.803 38.5651 14.6166 38.4324 14.4873L34.1057 10.2698C33.7715 9.94406 33.9559 9.37643 34.4178 9.30932L40.3971 8.44048C40.5805 8.41383 40.7391 8.29863 40.8211 8.13242L43.4951 2.7143Z" fill="#FEB803"/>
<path d="M75.4951 2.7143C75.7017 2.29575 76.2985 2.29575 76.5051 2.7143L79.1791 8.13242C79.2611 8.29863 79.4196 8.41383 79.6031 8.44048L85.5823 9.30932C86.0442 9.37643 86.2286 9.94406 85.8944 10.2698L81.5678 14.4873C81.4351 14.6166 81.3745 14.803 81.4058 14.9857L82.4272 20.9408C82.5061 21.4008 82.0233 21.7516 81.6101 21.5345L76.2621 18.7228C76.0981 18.6366 75.9021 18.6366 75.738 18.7228L70.39 21.5345C69.9769 21.7516 69.494 21.4008 69.5729 20.9408L70.5943 14.9857C70.6256 14.803 70.5651 14.6166 70.4324 14.4873L66.1057 10.2698C65.7715 9.94406 65.9559 9.37643 66.4178 9.30932L72.3971 8.44048C72.5805 8.41383 72.7391 8.29863 72.8211 8.13242L75.4951 2.7143Z" fill="#FEB803"/>
<path d="M107.495 2.7143C107.702 2.29575 108.298 2.29575 108.505 2.7143L111.179 8.13242C111.261 8.29863 111.42 8.41383 111.603 8.44048L117.582 9.30932C118.044 9.37643 118.229 9.94406 117.894 10.2698L113.568 14.4873C113.435 14.6166 113.374 14.803 113.406 14.9857L114.427 20.9408C114.506 21.4008 114.023 21.7516 113.61 21.5345L108.262 18.7228C108.098 18.6366 107.902 18.6366 107.738 18.7228L102.39 21.5345C101.977 21.7516 101.494 21.4008 101.573 20.9408L102.594 14.9857C102.626 14.803 102.565 14.6166 102.432 14.4873L98.1057 10.2698C97.7715 9.94406 97.9559 9.37643 98.4178 9.30932L104.397 8.44048C104.581 8.41383 104.739 8.29863 104.821 8.13242L107.495 2.7143Z" fill="#FEB803"/>
<path d="M139.495 2.7143C139.702 2.29575 140.298 2.29575 140.505 2.7143L143.179 8.13242C143.261 8.29863 143.42 8.41383 143.603 8.44048L149.582 9.30932C150.044 9.37643 150.229 9.94406 149.894 10.2698L145.568 14.4873C145.435 14.6166 145.374 14.803 145.406 14.9857L146.427 20.9408C146.506 21.4008 146.023 21.7516 145.61 21.5345L140.262 18.7228C140.098 18.6366 139.902 18.6366 139.738 18.7228L134.39 21.5345C133.977 21.7516 133.494 21.4008 133.573 20.9408L134.594 14.9857C134.626 14.803 134.565 14.6166 134.432 14.4873L130.106 10.2698C129.772 9.94406 129.956 9.37643 130.418 9.30932L136.397 8.44048C136.581 8.41383 136.739 8.29863 136.821 8.13242L139.495 2.7143Z" fill="#FEB803"/>
</svg>
